<?xml version="1.0" encoding="UTF-8"?>
<!DOCTYPE svg PUBLIC "-//W3C//DTD SVG 1.1//EN" "http://www.w3.org/Graphics/SVG/1.1/DTD/svg11.dtd">
<!-- Creator: CorelDRAW 2020 (64 Bit) -->
<svg xmlns="http://www.w3.org/2000/svg" xml:space="preserve" width="354px" height="354px" version="1.1" style="shape-rendering:geometricPrecision; text-rendering:geometricPrecision; image-rendering:optimizeQuality; fill-rule:evenodd; clip-rule:evenodd"
viewBox="0 0 354 354"
 xmlns:xlink="http://www.w3.org/1999/xlink"
 xmlns:xodm="http://www.corel.com/coreldraw/odm/2003">
 <defs>
  <style type="text/css">
   <![CDATA[
    .fil3 {fill:none}
    .fil0 {fill:#006DB4}
    .fil2 {fill:#DD4B25}
    .fil1 {fill:#ECC50B}
   ]]>
  </style>
   <clipPath id="id0">
    <path d="M0.25 -0.25l354 0 0 354 -354 0 0 -354z"/>
   </clipPath>
 </defs>
 <g id="Camada_x0020_1">
  <metadata id="CorelCorpID_0Corel-Layer"/>
  <g id="_910846304">
  </g>
  <g>
  </g>
  <g style="clip-path:url(#id0)">
   <g>
    <path class="fil0" d="M197.386 83.64c-11.824,-0.888 -28.279,4.315 -37.472,8.65 -8.079,3.809 -14.521,8.271 -21.085,13.564 -3.514,2.834 -5.738,5.635 -8.773,8.652 -0.93,0.924 -1.809,2.084 -2.627,3.115 -1.741,2.191 -3.254,4.168 -4.924,6.563 -10.327,14.803 -16.443,33.423 -16.521,52.694l-0.001 0.198c-0.208,51.038 41.546,93.529 93.177,93.709 19.658,0.069 38.441,-6.025 53.644,-16.505 3.069,-2.115 8.457,-6.342 11.218,-8.977 0.502,-0.479 0.857,-0.949 1.349,-1.419 6.938,-6.626 14.229,-15.968 19.326,-27.008 4.746,-10.277 9.012,-24.254 8.654,-37.484l-86.47 0.058c-9.637,0.037 -8.976,0.029 -9.352,-4.689 -0.619,-7.784 -0.397,-34.693 -0.374,-44.808l0.23 -46.312 0.001 -0.001z"/>
    <path class="fil1" d="M207.671 169.702l90.335 0.064c0,-8.758 -0.001,-11.615 -2.477,-20.252 -4.572,-15.946 -10.826,-28.761 -21.977,-40.6 -0.93,-0.987 -1.993,-2.275 -2.84,-2.903l-4.177 -4.133c-0.538,-0.519 -0.956,-0.781 -1.603,-1.37 -4.948,-4.509 -14.5,-10.391 -20.876,-13.183 -5.329,-2.334 -10.756,-4.342 -16.724,-6.044 -4.126,-1.179 -10.188,-2.611 -14.638,-2.119 -2.284,0.252 -3.209,-0.132 -5.305,-0.313l0.283 90.852 -0.001 0.001z"/>
    <path class="fil2" d="M197.607 35.238c-3.227,-0.194 -7.542,0.17 -10.842,0.338 -16.894,0.856 -33.329,5.664 -48.436,12.161 -8.138,3.499 -15.57,8.203 -22.022,12.63 -3.678,2.523 -6.52,5.027 -9.763,7.661 -3.967,3.223 -5.661,5.083 -9.082,8.142 -2.441,2.184 -2.446,2.722 -4.15,4.566l-8.07 9.352c-4.317,5.526 -6.835,8.892 -10.508,15.433 -12.017,21.399 -17.415,39.076 -18.874,63.524 -0.072,1.196 -0.366,2.705 -0.366,3.759l0 9.701c0,1.573 0.333,3.816 0.42,5.553 0.84,16.718 6.266,37.027 13.849,51.463 2.889,5.5 5.402,10.236 8.601,15.154 2.73,4.197 6.914,10.021 10.113,13.647 1.93,2.189 3.622,4.295 5.56,6.32l4.397 4.513c2.483,2.608 11.621,10.164 14.461,12.271 14.583,10.831 29.718,17.976 48.191,23.096 12.285,3.404 29.716,5.381 42.504,4.642 14.571,-0.841 27.313,-2.87 40.076,-7.499 6.494,-2.356 29.853,-11.928 31.451,-15.902 -0.62,-1.634 -2.349,-4.166 -3.309,-5.643 -1.155,-1.778 -2.327,-3.614 -3.481,-5.424l-5.419 -7.851c-0.754,-0.967 -1.339,-1.45 -2.088,-2.283 -3.852,0.746 -25.382,18.543 -62.766,18.543 -30.74,0 -62.292,-13.107 -82.075,-33.869 -1.244,-1.304 -2.377,-2.207 -3.635,-3.688 -1.101,-1.297 -2.073,-2.45 -3.366,-3.765 -2.298,-2.338 -4.408,-5.484 -6.272,-8.185 -3.706,-5.368 -7.569,-11.648 -10.547,-18.158 -6.146,-13.432 -10.393,-30.486 -10.404,-47.289 -0.019,-24.745 6.729,-47.041 20.658,-66.929 4.399,-6.281 10.88,-14.297 16.742,-19.49 18.439,-16.333 39.549,-26.663 64.675,-29.596 2.224,-0.26 4.452,-0.461 6.696,-0.596 2.208,-0.133 4.734,-0.054 6.889,-0.27l0.192 -26.031 0 -0.001z"/>
   </g>
  </g>
  <polygon class="fil3" points="0.25,-0.25 354.25,-0.25 354.25,353.75 0.25,353.75 "/>
  <polygon class="fil3" points="0,0 354,0 354,354 0,354 "/>
 </g>
</svg>
